<?xml version="1.0" encoding="UTF-8" standalone="no"?>
<!DOCTYPE svg PUBLIC "-//W3C//DTD SVG 1.1//EN"
  "http://www.w3.org/Graphics/SVG/1.1/DTD/svg11.dtd">
<!-- Generated by graphviz version 2.40.1 (20161225.0304)
 -->
<!-- Title: dependencies Pages: 1 -->
<svg width="758pt" height="284pt"
     viewBox="0.00 0.00 758.00 284.00" xmlns="http://www.w3.org/2000/svg">
  <g id="graph0" class="graph" transform="scale(1 1) rotate(0) translate(4 280)">
    <title>dependencies</title>
    <polygon fill="#ffffff" stroke="transparent" points="-4,4 -4,-280 754,-280 754,4 -4,4"/>
    <text text-anchor="start" x="354.0091" y="-42.4" font-family="sans-serif" font-weight="bold" font-size="14.00"
          fill="#000000">Legend
    </text>
    <polygon fill="#ffffb3" stroke="transparent" points="141,-10 141,-30 161,-30 161,-10 141,-10"/>
    <text text-anchor="start" x="164.629" y="-15.4" font-family="sans-serif" font-size="14.00" fill="#000000">&#160;Declarations</text>
    <polygon fill="#8dd3c7" stroke="transparent" points="254,-10 254,-30 274,-30 274,-10 254,-10"/>
    <text text-anchor="start" x="277.7251" y="-15.4" font-family="sans-serif" font-size="14.00" fill="#000000">&#160;Module</text>
    <polygon fill="#80b1d3" stroke="transparent" points="340,-10 340,-30 360,-30 360,-10 340,-10"/>
    <text text-anchor="start" x="363.7812" y="-15.4" font-family="sans-serif" font-size="14.00" fill="#000000">&#160;Bootstrap</text>
    <polygon fill="#fdb462" stroke="transparent" points="437,-10 437,-30 457,-30 457,-10 437,-10"/>
    <text text-anchor="start" x="460.6732" y="-15.4" font-family="sans-serif" font-size="14.00" fill="#000000">&#160;Providers</text>
    <polygon fill="#fb8072" stroke="transparent" points="533,-10 533,-30 553,-30 553,-10 533,-10"/>
    <text text-anchor="start" x="556.7258" y="-15.4" font-family="sans-serif" font-size="14.00" fill="#000000">&#160;Exports</text>
    <g id="clust1" class="cluster">
      <title>cluster_SharedModule</title>
      <polygon fill="none" stroke="#000000" stroke-dasharray="1,5" points="8,-70 8,-268 742,-268 742,-70 8,-70"/>
    </g>
    <g id="clust2" class="cluster">
      <title>cluster_SharedModule_declarations</title>
      <polygon fill="none" stroke="#000000" points="146,-78 146,-130 734,-130 734,-78 146,-78"/>
    </g>
    <g id="clust7" class="cluster">
      <title>cluster_SharedModule_imports</title>
      <polygon fill="none" stroke="#000000" points="16,-78 16,-130 138,-130 138,-78 16,-78"/>
    </g>
    <g id="clust8" class="cluster">
      <title>cluster_SharedModule_exports</title>
      <polygon fill="none" stroke="#000000" points="75,-208 75,-260 676,-260 676,-208 75,-208"/>
    </g>
    <!-- ButtonComponent -->
    <g id="node1" class="node">
      <title>ButtonComponent</title>
      <polygon fill="#ffffb3" stroke="#000000"
               points="725.9511,-122 606.0489,-122 606.0489,-86 725.9511,-86 725.9511,-122"/>
      <text text-anchor="middle" x="666" y="-99.8" font-family="Times,serif" font-size="14.00" fill="#000000">
        ButtonComponent
      </text>
    </g>
    <!-- SharedModule -->
    <g id="node5" class="node">
      <title>SharedModule</title>
      <polygon fill="#8dd3c7" stroke="#000000"
               points="369.4231,-187 366.4231,-191 345.4231,-191 342.4231,-187 270.5769,-187 270.5769,-151 369.4231,-151 369.4231,-187"/>
      <text text-anchor="middle" x="320" y="-164.8" font-family="Times,serif" font-size="14.00" fill="#000000">
        SharedModule
      </text>
    </g>
    <!-- ButtonComponent&#45;&gt;SharedModule -->
    <g id="edge1" class="edge">
      <title>ButtonComponent&#45;&gt;SharedModule</title>
      <path fill="none" stroke="#000000"
            d="M637.375,-122.1061C637.375,-141.3391 637.375,-169 637.375,-169 637.375,-169 379.2416,-169 379.2416,-169"/>
      <polygon fill="#000000" stroke="#000000"
               points="379.2417,-165.5001 369.2416,-169 379.2416,-172.5001 379.2417,-165.5001"/>
    </g>
    <!-- MyCurrencyFormatterDirective -->
    <g id="node2" class="node">
      <title>MyCurrencyFormatterDirective</title>
      <polygon fill="#ffffb3" stroke="#000000"
               points="588.3193,-122 393.6807,-122 393.6807,-86 588.3193,-86 588.3193,-122"/>
      <text text-anchor="middle" x="491" y="-99.8" font-family="Times,serif" font-size="14.00" fill="#000000">
        MyCurrencyFormatterDirective
      </text>
    </g>
    <!-- MyCurrencyFormatterDirective&#45;&gt;SharedModule -->
    <g id="edge2" class="edge">
      <title>MyCurrencyFormatterDirective&#45;&gt;SharedModule</title>
      <path fill="none" stroke="#000000"
            d="M460.375,-122.027C460.375,-138.3976 460.375,-160 460.375,-160 460.375,-160 379.491,-160 379.491,-160"/>
      <polygon fill="#000000" stroke="#000000"
               points="379.491,-156.5001 369.491,-160 379.4909,-163.5001 379.491,-156.5001"/>
    </g>
    <!-- PlnCurrencyPipe -->
    <g id="node3" class="node">
      <title>PlnCurrencyPipe</title>
      <polygon fill="#ffffb3" stroke="#000000"
               points="375.6486,-122 264.3514,-122 264.3514,-86 375.6486,-86 375.6486,-122"/>
      <text text-anchor="middle" x="320" y="-99.8" font-family="Times,serif" font-size="14.00" fill="#000000">
        PlnCurrencyPipe
      </text>
    </g>
    <!-- PlnCurrencyPipe&#45;&gt;SharedModule -->
    <g id="edge3" class="edge">
      <title>PlnCurrencyPipe&#45;&gt;SharedModule</title>
      <path fill="none" stroke="#000000" d="M320,-122.1061C320,-122.1061 320,-140.991 320,-140.991"/>
      <polygon fill="#000000" stroke="#000000"
               points="316.5001,-140.9909 320,-150.991 323.5001,-140.991 316.5001,-140.9909"/>
    </g>
    <!-- PostcodePipe -->
    <g id="node4" class="node">
      <title>PostcodePipe</title>
      <polygon fill="#ffffb3" stroke="#000000"
               points="245.9358,-122 154.0642,-122 154.0642,-86 245.9358,-86 245.9358,-122"/>
      <text text-anchor="middle" x="200" y="-99.8" font-family="Times,serif" font-size="14.00" fill="#000000">
        PostcodePipe
      </text>
    </g>
    <!-- PostcodePipe&#45;&gt;SharedModule -->
    <g id="edge4" class="edge">
      <title>PostcodePipe&#45;&gt;SharedModule</title>
      <path fill="none" stroke="#000000"
            d="M220.5717,-122.027C220.5717,-138.3976 220.5717,-160 220.5717,-160 220.5717,-160 260.5771,-160 260.5771,-160"/>
      <polygon fill="#000000" stroke="#000000"
               points="260.5772,-163.5001 270.5771,-160 260.5771,-156.5001 260.5772,-163.5001"/>
    </g>
    <!-- ButtonComponent  -->
    <g id="node7" class="node">
      <title>ButtonComponent</title>
      <polygon fill="#fb8072" stroke="#000000"
               points="668.4502,-252 545.5498,-252 545.5498,-216 668.4502,-216 668.4502,-252"/>
      <text text-anchor="middle" x="607" y="-229.8" font-family="Times,serif" font-size="14.00" fill="#000000">
        ButtonComponent
      </text>
    </g>
    <!-- SharedModule&#45;&gt;ButtonComponent  -->
    <g id="edge6" class="edge">
      <title>SharedModule&#45;&gt;ButtonComponent</title>
      <path fill="none" stroke="#000000" stroke-dasharray="5,2"
            d="M369.3839,-178C441.4553,-178 566.9672,-178 566.9672,-178 566.9672,-178 566.9672,-205.973 566.9672,-205.973"/>
      <polygon fill="#000000" stroke="#000000"
               points="563.4673,-205.973 566.9672,-215.973 570.4673,-205.973 563.4673,-205.973"/>
    </g>
    <!-- MyCurrencyFormatterDirective  -->
    <g id="node8" class="node">
      <title>MyCurrencyFormatterDirective</title>
      <polygon fill="#fb8072" stroke="#000000"
               points="527.3195,-252 328.6805,-252 328.6805,-216 527.3195,-216 527.3195,-252"/>
      <text text-anchor="middle" x="428" y="-229.8" font-family="Times,serif" font-size="14.00" fill="#000000">
        MyCurrencyFormatterDirective
      </text>
    </g>
    <!-- SharedModule&#45;&gt;MyCurrencyFormatterDirective  -->
    <g id="edge7" class="edge">
      <title>SharedModule&#45;&gt;MyCurrencyFormatterDirective</title>
      <path fill="none" stroke="#000000" stroke-dasharray="5,2"
            d="M349.0258,-187.1061C349.0258,-187.1061 349.0258,-205.991 349.0258,-205.991"/>
      <polygon fill="#000000" stroke="#000000"
               points="345.5258,-205.9909 349.0258,-215.991 352.5258,-205.991 345.5258,-205.9909"/>
    </g>
    <!-- PlnCurrencyPipe  -->
    <g id="node9" class="node">
      <title>PlnCurrencyPipe</title>
      <polygon fill="#fb8072" stroke="#000000"
               points="310.6481,-252 195.3519,-252 195.3519,-216 310.6481,-216 310.6481,-252"/>
      <text text-anchor="middle" x="253" y="-229.8" font-family="Times,serif" font-size="14.00" fill="#000000">
        PlnCurrencyPipe
      </text>
    </g>
    <!-- SharedModule&#45;&gt;PlnCurrencyPipe  -->
    <g id="edge8" class="edge">
      <title>SharedModule&#45;&gt;PlnCurrencyPipe</title>
      <path fill="none" stroke="#000000" stroke-dasharray="5,2"
            d="M290.6815,-187.1061C290.6815,-187.1061 290.6815,-205.991 290.6815,-205.991"/>
      <polygon fill="#000000" stroke="#000000"
               points="287.1815,-205.9909 290.6815,-215.991 294.1815,-205.991 287.1815,-205.9909"/>
    </g>
    <!-- PostcodePipe  -->
    <g id="node10" class="node">
      <title>PostcodePipe</title>
      <polygon fill="#fb8072" stroke="#000000"
               points="177.4348,-252 82.5652,-252 82.5652,-216 177.4348,-216 177.4348,-252"/>
      <text text-anchor="middle" x="130" y="-229.8" font-family="Times,serif" font-size="14.00" fill="#000000">
        PostcodePipe
      </text>
    </g>
    <!-- SharedModule&#45;&gt;PostcodePipe  -->
    <g id="edge9" class="edge">
      <title>SharedModule&#45;&gt;PostcodePipe</title>
      <path fill="none" stroke="#000000" stroke-dasharray="5,2"
            d="M270.3855,-178C225.3299,-178 165.875,-178 165.875,-178 165.875,-178 165.875,-205.973 165.875,-205.973"/>
      <polygon fill="#000000" stroke="#000000"
               points="162.3751,-205.973 165.875,-215.973 169.3751,-205.973 162.3751,-205.973"/>
    </g>
    <!-- MaterialModule -->
    <g id="node6" class="node">
      <title>MaterialModule</title>
      <polygon fill="#8dd3c7" stroke="#000000"
               points="130.4706,-122 127.4706,-126 106.4706,-126 103.4706,-122 23.5294,-122 23.5294,-86 130.4706,-86 130.4706,-122"/>
      <text text-anchor="middle" x="77" y="-99.8" font-family="Times,serif" font-size="14.00" fill="#000000">
        MaterialModule
      </text>
    </g>
    <!-- MaterialModule&#45;&gt;SharedModule -->
    <g id="edge5" class="edge">
      <title>MaterialModule&#45;&gt;SharedModule</title>
      <path fill="none" stroke="#000000"
            d="M106.509,-122.1061C106.509,-141.3391 106.509,-169 106.509,-169 106.509,-169 260.7528,-169 260.7528,-169"/>
      <polygon fill="#000000" stroke="#000000"
               points="260.7528,-172.5001 270.7528,-169 260.7527,-165.5001 260.7528,-172.5001"/>
    </g>
  </g>
</svg>
