<?xml version="1.0" encoding="UTF-8" standalone="no"?>
<!DOCTYPE svg PUBLIC "-//W3C//DTD SVG 1.1//EN"
  "http://www.w3.org/Graphics/SVG/1.1/DTD/svg11.dtd">
<!-- Generated by graphviz version 2.40.1 (20161225.0304)
 -->
<!-- Title: dependencies Pages: 1 -->
<svg width="1197pt" height="211pt"
     viewBox="0.00 0.00 1197.00 211.00" xmlns="http://www.w3.org/2000/svg">
  <g id="graph0" class="graph" transform="scale(1 1) rotate(0) translate(4 207)">
    <title>dependencies</title>
    <polygon fill="#ffffff" stroke="transparent" points="-4,4 -4,-207 1193,-207 1193,4 -4,4"/>
    <text text-anchor="start" x="573.5091" y="-42.4" font-family="sans-serif" font-weight="bold" font-size="14.00"
          fill="#000000">Legend
    </text>
    <polygon fill="#ffffb3" stroke="transparent" points="360.5,-10 360.5,-30 380.5,-30 380.5,-10 360.5,-10"/>
    <text text-anchor="start" x="384.129" y="-15.4" font-family="sans-serif" font-size="14.00" fill="#000000">&#160;Declarations</text>
    <polygon fill="#8dd3c7" stroke="transparent" points="473.5,-10 473.5,-30 493.5,-30 493.5,-10 473.5,-10"/>
    <text text-anchor="start" x="497.2251" y="-15.4" font-family="sans-serif" font-size="14.00" fill="#000000">&#160;Module</text>
    <polygon fill="#80b1d3" stroke="transparent" points="559.5,-10 559.5,-30 579.5,-30 579.5,-10 559.5,-10"/>
    <text text-anchor="start" x="583.2812" y="-15.4" font-family="sans-serif" font-size="14.00" fill="#000000">&#160;Bootstrap</text>
    <polygon fill="#fdb462" stroke="transparent" points="656.5,-10 656.5,-30 676.5,-30 676.5,-10 656.5,-10"/>
    <text text-anchor="start" x="680.1732" y="-15.4" font-family="sans-serif" font-size="14.00" fill="#000000">&#160;Providers</text>
    <polygon fill="#fb8072" stroke="transparent" points="752.5,-10 752.5,-30 772.5,-30 772.5,-10 752.5,-10"/>
    <text text-anchor="start" x="776.2258" y="-15.4" font-family="sans-serif" font-size="14.00" fill="#000000">&#160;Exports</text>
    <g id="clust1" class="cluster">
      <title>cluster_AdminModule</title>
      <polygon fill="none" stroke="#000000" stroke-dasharray="1,5" points="8,-70 8,-195 1181,-195 1181,-70 8,-70"/>
    </g>
    <g id="clust2" class="cluster">
      <title>cluster_AdminModule_declarations</title>
      <polygon fill="none" stroke="#000000" points="565,-78 565,-130 1173,-130 1173,-78 565,-78"/>
    </g>
    <g id="clust7" class="cluster">
      <title>cluster_AdminModule_imports</title>
      <polygon fill="none" stroke="#000000" points="156,-78 156,-130 557,-130 557,-78 156,-78"/>
    </g>
    <g id="clust10" class="cluster">
      <title>cluster_AdminModule_providers</title>
      <polygon fill="none" stroke="#000000" points="16,-78 16,-130 148,-130 148,-78 16,-78"/>
    </g>
    <!-- AccountComponent -->
    <g id="node1" class="node">
      <title>AccountComponent</title>
      <polygon fill="#ffffb3" stroke="#000000"
               points="1165.259,-122 1036.741,-122 1036.741,-86 1165.259,-86 1165.259,-122"/>
      <text text-anchor="middle" x="1101" y="-99.8" font-family="Times,serif" font-size="14.00" fill="#000000">
        AccountComponent
      </text>
    </g>
    <!-- AdminModule -->
    <g id="node5" class="node">
      <title>AdminModule</title>
      <polygon fill="#8dd3c7" stroke="#000000"
               points="604.4386,-187 601.4386,-191 580.4386,-191 577.4386,-187 505.5614,-187 505.5614,-151 604.4386,-151 604.4386,-187"/>
      <text text-anchor="middle" x="555" y="-164.8" font-family="Times,serif" font-size="14.00" fill="#000000">
        AdminModule
      </text>
    </g>
    <!-- AccountComponent&#45;&gt;AdminModule -->
    <g id="edge1" class="edge">
      <title>AccountComponent&#45;&gt;AdminModule</title>
      <path fill="none" stroke="#000000"
            d="M1101,-122.2921C1101,-144.2057 1101,-178 1101,-178 1101,-178 614.4168,-178 614.4168,-178"/>
      <polygon fill="#000000" stroke="#000000"
               points="614.4169,-174.5001 604.4168,-178 614.4168,-181.5001 614.4169,-174.5001"/>
    </g>
    <!-- AddProductComponent -->
    <g id="node2" class="node">
      <title>AddProductComponent</title>
      <polygon fill="#ffffb3" stroke="#000000"
               points="1018.4874,-122 869.5126,-122 869.5126,-86 1018.4874,-86 1018.4874,-122"/>
      <text text-anchor="middle" x="944" y="-99.8" font-family="Times,serif" font-size="14.00" fill="#000000">
        AddProductComponent
      </text>
    </g>
    <!-- AddProductComponent&#45;&gt;AdminModule -->
    <g id="edge2" class="edge">
      <title>AddProductComponent&#45;&gt;AdminModule</title>
      <path fill="none" stroke="#000000"
            d="M944,-122.1061C944,-141.3391 944,-169 944,-169 944,-169 614.2671,-169 614.2671,-169"/>
      <polygon fill="#000000" stroke="#000000"
               points="614.2672,-165.5001 604.2671,-169 614.2671,-172.5001 614.2672,-165.5001"/>
    </g>
    <!-- CustomersComponent -->
    <g id="node3" class="node">
      <title>CustomersComponent</title>
      <polygon fill="#ffffb3" stroke="#000000"
               points="851.7148,-122 710.2852,-122 710.2852,-86 851.7148,-86 851.7148,-122"/>
      <text text-anchor="middle" x="781" y="-99.8" font-family="Times,serif" font-size="14.00" fill="#000000">
        CustomersComponent
      </text>
    </g>
    <!-- CustomersComponent&#45;&gt;AdminModule -->
    <g id="edge3" class="edge">
      <title>CustomersComponent&#45;&gt;AdminModule</title>
      <path fill="none" stroke="#000000"
            d="M781,-122.027C781,-138.3976 781,-160 781,-160 781,-160 614.3174,-160 614.3174,-160"/>
      <polygon fill="#000000" stroke="#000000"
               points="614.3174,-156.5001 604.3174,-160 614.3174,-163.5001 614.3174,-156.5001"/>
    </g>
    <!-- OrdersComponent -->
    <g id="node4" class="node">
      <title>OrdersComponent</title>
      <polygon fill="#ffffb3" stroke="#000000"
               points="692.9201,-122 573.0799,-122 573.0799,-86 692.9201,-86 692.9201,-122"/>
      <text text-anchor="middle" x="633" y="-99.8" font-family="Times,serif" font-size="14.00" fill="#000000">
        OrdersComponent
      </text>
    </g>
    <!-- OrdersComponent&#45;&gt;AdminModule -->
    <g id="edge4" class="edge">
      <title>OrdersComponent&#45;&gt;AdminModule</title>
      <path fill="none" stroke="#000000"
            d="M588.7546,-122.1061C588.7546,-122.1061 588.7546,-140.991 588.7546,-140.991"/>
      <polygon fill="#000000" stroke="#000000"
               points="585.2546,-140.9909 588.7546,-150.991 592.2546,-140.991 585.2546,-140.9909"/>
    </g>
    <!-- AdminRoutingModule -->
    <g id="node6" class="node">
      <title>AdminRoutingModule</title>
      <polygon fill="#8dd3c7" stroke="#000000"
               points="548.5561,-122 545.5561,-126 524.5561,-126 521.5561,-122 405.4439,-122 405.4439,-86 548.5561,-86 548.5561,-122"/>
      <text text-anchor="middle" x="477" y="-99.8" font-family="Times,serif" font-size="14.00" fill="#000000">
        AdminRoutingModule
      </text>
    </g>
    <!-- AdminRoutingModule&#45;&gt;AdminModule -->
    <g id="edge5" class="edge">
      <title>AdminRoutingModule&#45;&gt;AdminModule</title>
      <path fill="none" stroke="#000000"
            d="M527.2795,-122.1061C527.2795,-122.1061 527.2795,-140.991 527.2795,-140.991"/>
      <polygon fill="#000000" stroke="#000000"
               points="523.7795,-140.9909 527.2795,-150.991 530.7795,-140.991 523.7795,-140.9909"/>
    </g>
    <!-- MaterialModule -->
    <g id="node7" class="node">
      <title>MaterialModule</title>
      <polygon fill="#8dd3c7" stroke="#000000"
               points="387.4706,-122 384.4706,-126 363.4706,-126 360.4706,-122 280.5294,-122 280.5294,-86 387.4706,-86 387.4706,-122"/>
      <text text-anchor="middle" x="334" y="-99.8" font-family="Times,serif" font-size="14.00" fill="#000000">
        MaterialModule
      </text>
    </g>
    <!-- MaterialModule&#45;&gt;AdminModule -->
    <g id="edge6" class="edge">
      <title>MaterialModule&#45;&gt;AdminModule</title>
      <path fill="none" stroke="#000000"
            d="M334,-122.027C334,-138.3976 334,-160 334,-160 334,-160 495.6784,-160 495.6784,-160"/>
      <polygon fill="#000000" stroke="#000000"
               points="495.6784,-163.5001 505.6784,-160 495.6783,-156.5001 495.6784,-163.5001"/>
    </g>
    <!-- SharedModule -->
    <g id="node8" class="node">
      <title>SharedModule</title>
      <polygon fill="#8dd3c7" stroke="#000000"
               points="262.4231,-122 259.4231,-126 238.4231,-126 235.4231,-122 163.5769,-122 163.5769,-86 262.4231,-86 262.4231,-122"/>
      <text text-anchor="middle" x="213" y="-99.8" font-family="Times,serif" font-size="14.00" fill="#000000">
        SharedModule
      </text>
    </g>
    <!-- SharedModule&#45;&gt;AdminModule -->
    <g id="edge7" class="edge">
      <title>SharedModule&#45;&gt;AdminModule</title>
      <path fill="none" stroke="#000000"
            d="M213,-122.1061C213,-141.3391 213,-169 213,-169 213,-169 495.6355,-169 495.6355,-169"/>
      <polygon fill="#000000" stroke="#000000"
               points="495.6355,-172.5001 505.6355,-169 495.6355,-165.5001 495.6355,-172.5001"/>
    </g>
    <!-- TitleService -->
    <g id="node9" class="node">
      <title>TitleService</title>
      <ellipse fill="#fdb462" stroke="#000000" cx="82" cy="-104" rx="58.459" ry="18"/>
      <text text-anchor="middle" x="82" y="-99.8" font-family="Times,serif" font-size="14.00" fill="#000000">
        TitleService
      </text>
    </g>
    <!-- TitleService&#45;&gt;AdminModule -->
    <g id="edge8" class="edge">
      <title>TitleService&#45;&gt;AdminModule</title>
      <path fill="none" stroke="#000000"
            d="M82,-122.2921C82,-144.2057 82,-178 82,-178 82,-178 495.7193,-178 495.7193,-178"/>
      <polygon fill="#000000" stroke="#000000"
               points="495.7193,-181.5001 505.7193,-178 495.7192,-174.5001 495.7193,-181.5001"/>
    </g>
  </g>
</svg>
