<?xml version="1.0" encoding="UTF-8" standalone="no"?>
<!DOCTYPE svg PUBLIC "-//W3C//DTD SVG 1.1//EN"
  "http://www.w3.org/Graphics/SVG/1.1/DTD/svg11.dtd">
<!-- Generated by graphviz version 2.40.1 (20161225.0304)
 -->
<!-- Title: dependencies Pages: 1 -->
<svg width="3760pt" height="284pt"
     viewBox="0.00 0.00 3760.00 284.00" xmlns="http://www.w3.org/2000/svg">
  <g id="graph0" class="graph" transform="scale(1 1) rotate(0) translate(4 280)">
    <title>dependencies</title>
    <polygon fill="#ffffff" stroke="transparent" points="-4,4 -4,-280 3756,-280 3756,4 -4,4"/>
    <text text-anchor="start" x="1855.0091" y="-42.4" font-family="sans-serif" font-weight="bold" font-size="14.00"
          fill="#000000">Legend
    </text>
    <polygon fill="#ffffb3" stroke="transparent" points="1642,-10 1642,-30 1662,-30 1662,-10 1642,-10"/>
    <text text-anchor="start" x="1665.629" y="-15.4" font-family="sans-serif" font-size="14.00" fill="#000000">&#160;Declarations</text>
    <polygon fill="#8dd3c7" stroke="transparent" points="1755,-10 1755,-30 1775,-30 1775,-10 1755,-10"/>
    <text text-anchor="start" x="1778.7251" y="-15.4" font-family="sans-serif" font-size="14.00" fill="#000000">&#160;Module</text>
    <polygon fill="#80b1d3" stroke="transparent" points="1841,-10 1841,-30 1861,-30 1861,-10 1841,-10"/>
    <text text-anchor="start" x="1864.7812" y="-15.4" font-family="sans-serif" font-size="14.00" fill="#000000">&#160;Bootstrap</text>
    <polygon fill="#fdb462" stroke="transparent" points="1938,-10 1938,-30 1958,-30 1958,-10 1938,-10"/>
    <text text-anchor="start" x="1961.6732" y="-15.4" font-family="sans-serif" font-size="14.00" fill="#000000">&#160;Providers</text>
    <polygon fill="#fb8072" stroke="transparent" points="2034,-10 2034,-30 2054,-30 2054,-10 2034,-10"/>
    <text text-anchor="start" x="2057.7258" y="-15.4" font-family="sans-serif" font-size="14.00" fill="#000000">&#160;Exports</text>
    <g id="clust1" class="cluster">
      <title>cluster_AppModule</title>
      <polygon fill="none" stroke="#000000" stroke-dasharray="1,5" points="8,-70 8,-268 3744,-268 3744,-70 8,-70"/>
    </g>
    <g id="clust2" class="cluster">
      <title>cluster_AppModule_declarations</title>
      <polygon fill="none" stroke="#000000" points="832,-78 832,-130 3736,-130 3736,-78 832,-78"/>
    </g>
    <g id="clust21" class="cluster">
      <title>cluster_AppModule_imports</title>
      <polygon fill="none" stroke="#000000" points="438,-78 438,-130 824,-130 824,-78 438,-78"/>
    </g>
    <g id="clust23" class="cluster">
      <title>cluster_AppModule_bootstrap</title>
      <polygon fill="none" stroke="#000000" points="1835,-208 1835,-260 1959,-260 1959,-208 1835,-208"/>
    </g>
    <g id="clust24" class="cluster">
      <title>cluster_AppModule_providers</title>
      <polygon fill="none" stroke="#000000" points="16,-78 16,-130 430,-130 430,-78 16,-78"/>
    </g>
    <!-- AppComponent -->
    <g id="node1" class="node">
      <title>AppComponent</title>
      <polygon fill="#ffffb3" stroke="#000000"
               points="3727.9399,-122 3622.0601,-122 3622.0601,-86 3727.9399,-86 3727.9399,-122"/>
      <text text-anchor="middle" x="3675" y="-99.8" font-family="Times,serif" font-size="14.00" fill="#000000">
        AppComponent
      </text>
    </g>
    <!-- AppModule -->
    <g id="node19" class="node">
      <title>AppModule</title>
      <polygon fill="#8dd3c7" stroke="#000000"
               points="1938.6571,-187 1935.6571,-191 1914.6571,-191 1911.6571,-187 1855.3429,-187 1855.3429,-151 1938.6571,-151 1938.6571,-187"/>
      <text text-anchor="middle" x="1897" y="-164.8" font-family="Times,serif" font-size="14.00" fill="#000000">
        AppModule
      </text>
    </g>
    <!-- AppComponent&#45;&gt;AppModule -->
    <g id="edge1" class="edge">
      <title>AppComponent&#45;&gt;AppModule</title>
      <path fill="none" stroke="#000000"
            d="M3675,-122.1532C3675,-145.7566 3675,-184 3675,-184 3675,-184 1948.7639,-184 1948.7639,-184"/>
      <polygon fill="#000000" stroke="#000000"
               points="1948.7639,-180.5001 1938.7639,-184 1948.7639,-187.5001 1948.7639,-180.5001"/>
    </g>
    <!-- HomePageComponent -->
    <g id="node2" class="node">
      <title>HomePageComponent</title>
      <polygon fill="#ffffb3" stroke="#000000"
               points="3604.2562,-122 3461.7438,-122 3461.7438,-86 3604.2562,-86 3604.2562,-122"/>
      <text text-anchor="middle" x="3533" y="-99.8" font-family="Times,serif" font-size="14.00" fill="#000000">
        HomePageComponent
      </text>
    </g>
    <!-- HomePageComponent&#45;&gt;AppModule -->
    <g id="edge2" class="edge">
      <title>HomePageComponent&#45;&gt;AppModule</title>
      <path fill="none" stroke="#000000"
            d="M3533,-122.2479C3533,-145.0179 3533,-181 3533,-181 3533,-181 1948.6709,-181 1948.6709,-181"/>
      <polygon fill="#000000" stroke="#000000"
               points="1948.6709,-177.5001 1938.6709,-181 1948.6708,-184.5001 1948.6709,-177.5001"/>
    </g>
    <!-- LoginComponent -->
    <g id="node3" class="node">
      <title>LoginComponent</title>
      <polygon fill="#ffffb3" stroke="#000000"
               points="3443.2758,-122 3328.7242,-122 3328.7242,-86 3443.2758,-86 3443.2758,-122"/>
      <text text-anchor="middle" x="3386" y="-99.8" font-family="Times,serif" font-size="14.00" fill="#000000">
        LoginComponent
      </text>
    </g>
    <!-- LoginComponent&#45;&gt;AppModule -->
    <g id="edge3" class="edge">
      <title>LoginComponent&#45;&gt;AppModule</title>
      <path fill="none" stroke="#000000"
            d="M3386,-122.2921C3386,-144.2057 3386,-178 3386,-178 3386,-178 1948.7706,-178 1948.7706,-178"/>
      <polygon fill="#000000" stroke="#000000"
               points="1948.7706,-174.5001 1938.7706,-178 1948.7705,-181.5001 1948.7706,-174.5001"/>
    </g>
    <!-- MenuComponent -->
    <g id="node4" class="node">
      <title>MenuComponent</title>
      <polygon fill="#ffffb3" stroke="#000000"
               points="3310.9916,-122 3197.0084,-122 3197.0084,-86 3310.9916,-86 3310.9916,-122"/>
      <text text-anchor="middle" x="3254" y="-99.8" font-family="Times,serif" font-size="14.00" fill="#000000">
        MenuComponent
      </text>
    </g>
    <!-- MenuComponent&#45;&gt;AppModule -->
    <g id="edge4" class="edge">
      <title>MenuComponent&#45;&gt;AppModule</title>
      <path fill="none" stroke="#000000"
            d="M3254,-122.2843C3254,-143.3211 3254,-175 3254,-175 3254,-175 1948.726,-175 1948.726,-175"/>
      <polygon fill="#000000" stroke="#000000"
               points="1948.7261,-171.5001 1938.726,-175 1948.726,-178.5001 1948.7261,-171.5001"/>
    </g>
    <!-- MyAccountComponent -->
    <g id="node5" class="node">
      <title>MyAccountComponent</title>
      <polygon fill="#ffffb3" stroke="#000000"
               points="3179.2035,-122 3030.7965,-122 3030.7965,-86 3179.2035,-86 3179.2035,-122"/>
      <text text-anchor="middle" x="3105" y="-99.8" font-family="Times,serif" font-size="14.00" fill="#000000">
        MyAccountComponent
      </text>
    </g>
    <!-- MyAccountComponent&#45;&gt;AppModule -->
    <g id="edge5" class="edge">
      <title>MyAccountComponent&#45;&gt;AppModule</title>
      <path fill="none" stroke="#000000"
            d="M3105,-122.2228C3105,-142.3652 3105,-172 3105,-172 3105,-172 1948.9329,-172 1948.9329,-172"/>
      <polygon fill="#000000" stroke="#000000"
               points="1948.9329,-168.5001 1938.9329,-172 1948.9329,-175.5001 1948.9329,-168.5001"/>
    </g>
    <!-- MyOrdersComponent -->
    <g id="node6" class="node">
      <title>MyOrdersComponent</title>
      <polygon fill="#ffffb3" stroke="#000000"
               points="3012.3641,-122 2873.6359,-122 2873.6359,-86 3012.3641,-86 3012.3641,-122"/>
      <text text-anchor="middle" x="2943" y="-99.8" font-family="Times,serif" font-size="14.00" fill="#000000">
        MyOrdersComponent
      </text>
    </g>
    <!-- MyOrdersComponent&#45;&gt;AppModule -->
    <g id="edge6" class="edge">
      <title>MyOrdersComponent&#45;&gt;AppModule</title>
      <path fill="none" stroke="#000000"
            d="M2943,-122.1061C2943,-141.3391 2943,-169 2943,-169 2943,-169 1948.9744,-169 1948.9744,-169"/>
      <polygon fill="#000000" stroke="#000000"
               points="1948.9744,-165.5001 1938.9744,-169 1948.9743,-172.5001 1948.9744,-165.5001"/>
    </g>
    <!-- MySlickCarouselComponent -->
    <g id="node7" class="node">
      <title>MySlickCarouselComponent</title>
      <polygon fill="#ffffb3" stroke="#000000"
               points="2855.8173,-122 2676.1827,-122 2676.1827,-86 2855.8173,-86 2855.8173,-122"/>
      <text text-anchor="middle" x="2766" y="-99.8" font-family="Times,serif" font-size="14.00" fill="#000000">
        MySlickCarouselComponent
      </text>
    </g>
    <!-- MySlickCarouselComponent&#45;&gt;AppModule -->
    <g id="edge7" class="edge">
      <title>MySlickCarouselComponent&#45;&gt;AppModule</title>
      <path fill="none" stroke="#000000"
            d="M2766,-122.2667C2766,-140.5552 2766,-166 2766,-166 2766,-166 1948.9137,-166 1948.9137,-166"/>
      <polygon fill="#000000" stroke="#000000"
               points="1948.9137,-162.5001 1938.9137,-166 1948.9136,-169.5001 1948.9137,-162.5001"/>
    </g>
    <!-- OrderDetailComponent -->
    <g id="node8" class="node">
      <title>OrderDetailComponent</title>
      <polygon fill="#ffffb3" stroke="#000000"
               points="2658.1825,-122 2509.8175,-122 2509.8175,-86 2658.1825,-86 2658.1825,-122"/>
      <text text-anchor="middle" x="2584" y="-99.8" font-family="Times,serif" font-size="14.00" fill="#000000">
        OrderDetailComponent
      </text>
    </g>
    <!-- OrderDetailComponent&#45;&gt;AppModule -->
    <g id="edge8" class="edge">
      <title>OrderDetailComponent&#45;&gt;AppModule</title>
      <path fill="none" stroke="#000000"
            d="M2584,-122.0225C2584,-139.3734 2584,-163 2584,-163 2584,-163 1948.6839,-163 1948.6839,-163"/>
      <polygon fill="#000000" stroke="#000000"
               points="1948.684,-159.5001 1938.6839,-163 1948.6839,-166.5001 1948.684,-159.5001"/>
    </g>
    <!-- OrderSummaryComponent -->
    <g id="node9" class="node">
      <title>OrderSummaryComponent</title>
      <polygon fill="#ffffb3" stroke="#000000"
               points="2492.4143,-122 2323.5857,-122 2323.5857,-86 2492.4143,-86 2492.4143,-122"/>
      <text text-anchor="middle" x="2408" y="-99.8" font-family="Times,serif" font-size="14.00" fill="#000000">
        OrderSummaryComponent
      </text>
    </g>
    <!-- OrderSummaryComponent&#45;&gt;AppModule -->
    <g id="edge9" class="edge">
      <title>OrderSummaryComponent&#45;&gt;AppModule</title>
      <path fill="none" stroke="#000000"
            d="M2408,-122.027C2408,-138.3976 2408,-160 2408,-160 2408,-160 1948.8173,-160 1948.8173,-160"/>
      <polygon fill="#000000" stroke="#000000"
               points="1948.8173,-156.5001 1938.8173,-160 1948.8172,-163.5001 1948.8173,-156.5001"/>
    </g>
    <!-- PageNotFoundComponent -->
    <g id="node10" class="node">
      <title>PageNotFoundComponent</title>
      <polygon fill="#ffffb3" stroke="#000000"
               points="2305.8243,-122 2140.1757,-122 2140.1757,-86 2305.8243,-86 2305.8243,-122"/>
      <text text-anchor="middle" x="2223" y="-99.8" font-family="Times,serif" font-size="14.00" fill="#000000">
        PageNotFoundComponent
      </text>
    </g>
    <!-- PageNotFoundComponent&#45;&gt;AppModule -->
    <g id="edge10" class="edge">
      <title>PageNotFoundComponent&#45;&gt;AppModule</title>
      <path fill="none" stroke="#000000"
            d="M2223,-122.2396C2223,-137.5706 2223,-157 2223,-157 2223,-157 1948.9514,-157 1948.9514,-157"/>
      <polygon fill="#000000" stroke="#000000"
               points="1948.9514,-153.5001 1938.9514,-157 1948.9514,-160.5001 1948.9514,-153.5001"/>
    </g>
    <!-- PaymentComponent -->
    <g id="node11" class="node">
      <title>PaymentComponent</title>
      <polygon fill="#ffffb3" stroke="#000000"
               points="2122.3258,-122 1991.6742,-122 1991.6742,-86 2122.3258,-86 2122.3258,-122"/>
      <text text-anchor="middle" x="2057" y="-99.8" font-family="Times,serif" font-size="14.00" fill="#000000">
        PaymentComponent
      </text>
    </g>
    <!-- PaymentComponent&#45;&gt;AppModule -->
    <g id="edge11" class="edge">
      <title>PaymentComponent&#45;&gt;AppModule</title>
      <path fill="none" stroke="#000000"
            d="M2057,-122.0511C2057,-136.373 2057,-154 2057,-154 2057,-154 1949.0381,-154 1949.0381,-154"/>
      <polygon fill="#000000" stroke="#000000"
               points="1949.0382,-150.5001 1939.0381,-154 1949.0381,-157.5001 1949.0382,-150.5001"/>
    </g>
    <!-- PersonalInfoComponent -->
    <g id="node12" class="node">
      <title>PersonalInfoComponent</title>
      <polygon fill="#ffffb3" stroke="#000000"
               points="1973.3613,-122 1820.6387,-122 1820.6387,-86 1973.3613,-86 1973.3613,-122"/>
      <text text-anchor="middle" x="1897" y="-99.8" font-family="Times,serif" font-size="14.00" fill="#000000">
        PersonalInfoComponent
      </text>
    </g>
    <!-- PersonalInfoComponent&#45;&gt;AppModule -->
    <g id="edge12" class="edge">
      <title>PersonalInfoComponent&#45;&gt;AppModule</title>
      <path fill="none" stroke="#000000" d="M1897,-122.1061C1897,-122.1061 1897,-140.991 1897,-140.991"/>
      <polygon fill="#000000" stroke="#000000"
               points="1893.5001,-140.9909 1897,-150.991 1900.5001,-140.991 1893.5001,-140.9909"/>
    </g>
    <!-- ProductCardComponent -->
    <g id="node13" class="node">
      <title>ProductCardComponent</title>
      <polygon fill="#ffffb3" stroke="#000000"
               points="1803.0926,-122 1650.9074,-122 1650.9074,-86 1803.0926,-86 1803.0926,-122"/>
      <text text-anchor="middle" x="1727" y="-99.8" font-family="Times,serif" font-size="14.00" fill="#000000">
        ProductCardComponent
      </text>
    </g>
    <!-- ProductCardComponent&#45;&gt;AppModule -->
    <g id="edge13" class="edge">
      <title>ProductCardComponent&#45;&gt;AppModule</title>
      <path fill="none" stroke="#000000"
            d="M1727,-122.0511C1727,-136.373 1727,-154 1727,-154 1727,-154 1844.9775,-154 1844.9775,-154"/>
      <polygon fill="#000000" stroke="#000000"
               points="1844.9776,-157.5001 1854.9775,-154 1844.9775,-150.5001 1844.9776,-157.5001"/>
    </g>
    <!-- ProductDetailsComponent -->
    <g id="node14" class="node">
      <title>ProductDetailsComponent</title>
      <polygon fill="#ffffb3" stroke="#000000"
               points="1633.0337,-122 1468.9663,-122 1468.9663,-86 1633.0337,-86 1633.0337,-122"/>
      <text text-anchor="middle" x="1551" y="-99.8" font-family="Times,serif" font-size="14.00" fill="#000000">
        ProductDetailsComponent
      </text>
    </g>
    <!-- ProductDetailsComponent&#45;&gt;AppModule -->
    <g id="edge14" class="edge">
      <title>ProductDetailsComponent&#45;&gt;AppModule</title>
      <path fill="none" stroke="#000000"
            d="M1551,-122.2396C1551,-137.5706 1551,-157 1551,-157 1551,-157 1845.2643,-157 1845.2643,-157"/>
      <polygon fill="#000000" stroke="#000000"
               points="1845.2644,-160.5001 1855.2643,-157 1845.2643,-153.5001 1845.2644,-160.5001"/>
    </g>
    <!-- ProductListComponent -->
    <g id="node15" class="node">
      <title>ProductListComponent</title>
      <polygon fill="#ffffb3" stroke="#000000"
               points="1450.1596,-122 1303.8404,-122 1303.8404,-86 1450.1596,-86 1450.1596,-122"/>
      <text text-anchor="middle" x="1377" y="-99.8" font-family="Times,serif" font-size="14.00" fill="#000000">
        ProductListComponent
      </text>
    </g>
    <!-- ProductListComponent&#45;&gt;AppModule -->
    <g id="edge15" class="edge">
      <title>ProductListComponent&#45;&gt;AppModule</title>
      <path fill="none" stroke="#000000"
            d="M1377,-122.027C1377,-138.3976 1377,-160 1377,-160 1377,-160 1845.3252,-160 1845.3252,-160"/>
      <polygon fill="#000000" stroke="#000000"
               points="1845.3253,-163.5001 1855.3252,-160 1845.3252,-156.5001 1845.3253,-163.5001"/>
    </g>
    <!-- ShoppingCartComponent -->
    <g id="node16" class="node">
      <title>ShoppingCartComponent</title>
      <polygon fill="#ffffb3" stroke="#000000"
               points="1285.608,-122 1126.392,-122 1126.392,-86 1285.608,-86 1285.608,-122"/>
      <text text-anchor="middle" x="1206" y="-99.8" font-family="Times,serif" font-size="14.00" fill="#000000">
        ShoppingCartComponent
      </text>
    </g>
    <!-- ShoppingCartComponent&#45;&gt;AppModule -->
    <g id="edge16" class="edge">
      <title>ShoppingCartComponent&#45;&gt;AppModule</title>
      <path fill="none" stroke="#000000"
            d="M1206,-122.0225C1206,-139.3734 1206,-163 1206,-163 1206,-163 1845.331,-163 1845.331,-163"/>
      <polygon fill="#000000" stroke="#000000"
               points="1845.331,-166.5001 1855.331,-163 1845.331,-159.5001 1845.331,-166.5001"/>
    </g>
    <!-- SignUpComponent -->
    <g id="node17" class="node">
      <title>SignUpComponent</title>
      <polygon fill="#ffffb3" stroke="#000000"
               points="1108.1123,-122 983.8877,-122 983.8877,-86 1108.1123,-86 1108.1123,-122"/>
      <text text-anchor="middle" x="1046" y="-99.8" font-family="Times,serif" font-size="14.00" fill="#000000">
        SignUpComponent
      </text>
    </g>
    <!-- SignUpComponent&#45;&gt;AppModule -->
    <g id="edge17" class="edge">
      <title>SignUpComponent&#45;&gt;AppModule</title>
      <path fill="none" stroke="#000000"
            d="M1046,-122.2667C1046,-140.5552 1046,-166 1046,-166 1046,-166 1845.089,-166 1845.089,-166"/>
      <polygon fill="#000000" stroke="#000000"
               points="1845.0891,-169.5001 1855.089,-166 1845.089,-162.5001 1845.0891,-169.5001"/>
    </g>
    <!-- SupportComponent -->
    <g id="node18" class="node">
      <title>SupportComponent</title>
      <polygon fill="#ffffb3" stroke="#000000"
               points="965.6666,-122 840.3334,-122 840.3334,-86 965.6666,-86 965.6666,-122"/>
      <text text-anchor="middle" x="903" y="-99.8" font-family="Times,serif" font-size="14.00" fill="#000000">
        SupportComponent
      </text>
    </g>
    <!-- SupportComponent&#45;&gt;AppModule -->
    <g id="edge18" class="edge">
      <title>SupportComponent&#45;&gt;AppModule</title>
      <path fill="none" stroke="#000000"
            d="M903,-122.1061C903,-141.3391 903,-169 903,-169 903,-169 1845.2398,-169 1845.2398,-169"/>
      <polygon fill="#000000" stroke="#000000"
               points="1845.2398,-172.5001 1855.2398,-169 1845.2398,-165.5001 1845.2398,-172.5001"/>
    </g>
    <!-- AppComponent  -->
    <g id="node23" class="node">
      <title>AppComponent</title>
      <polygon fill="#80b1d3" stroke="#000000"
               points="1951.439,-252 1842.561,-252 1842.561,-216 1951.439,-216 1951.439,-252"/>
      <text text-anchor="middle" x="1897" y="-229.8" font-family="Times,serif" font-size="14.00" fill="#000000">
        AppComponent
      </text>
    </g>
    <!-- AppModule&#45;&gt;AppComponent  -->
    <g id="edge22" class="edge">
      <title>AppModule&#45;&gt;AppComponent</title>
      <path fill="none" stroke="#000000" stroke-dasharray="1,5"
            d="M1897,-187.1061C1897,-187.1061 1897,-205.991 1897,-205.991"/>
      <polygon fill="#000000" stroke="#000000"
               points="1893.5001,-205.9909 1897,-215.991 1900.5001,-205.991 1893.5001,-205.9909"/>
    </g>
    <!-- AppRoutingModule -->
    <g id="node20" class="node">
      <title>AppRoutingModule</title>
      <polygon fill="#8dd3c7" stroke="#000000"
               points="816.2744,-122 813.2744,-126 792.2744,-126 789.2744,-122 687.7256,-122 687.7256,-86 816.2744,-86 816.2744,-122"/>
      <text text-anchor="middle" x="752" y="-99.8" font-family="Times,serif" font-size="14.00" fill="#000000">
        AppRoutingModule
      </text>
    </g>
    <!-- AppRoutingModule&#45;&gt;AppModule -->
    <g id="edge19" class="edge">
      <title>AppRoutingModule&#45;&gt;AppModule</title>
      <path fill="none" stroke="#000000"
            d="M752,-122.2228C752,-142.3652 752,-172 752,-172 752,-172 1845.2323,-172 1845.2323,-172"/>
      <polygon fill="#000000" stroke="#000000"
               points="1845.2323,-175.5001 1855.2323,-172 1845.2323,-168.5001 1845.2323,-175.5001"/>
    </g>
    <!-- MaterialModule -->
    <g id="node21" class="node">
      <title>MaterialModule</title>
      <polygon fill="#8dd3c7" stroke="#000000"
               points="669.4706,-122 666.4706,-126 645.4706,-126 642.4706,-122 562.5294,-122 562.5294,-86 669.4706,-86 669.4706,-122"/>
      <text text-anchor="middle" x="616" y="-99.8" font-family="Times,serif" font-size="14.00" fill="#000000">
        MaterialModule
      </text>
    </g>
    <!-- MaterialModule&#45;&gt;AppModule -->
    <g id="edge20" class="edge">
      <title>MaterialModule&#45;&gt;AppModule</title>
      <path fill="none" stroke="#000000"
            d="M616,-122.2843C616,-143.3211 616,-175 616,-175 616,-175 1845.1071,-175 1845.1071,-175"/>
      <polygon fill="#000000" stroke="#000000"
               points="1845.1072,-178.5001 1855.1071,-175 1845.1071,-171.5001 1845.1072,-178.5001"/>
    </g>
    <!-- SharedModule -->
    <g id="node22" class="node">
      <title>SharedModule</title>
      <polygon fill="#8dd3c7" stroke="#000000"
               points="544.4231,-122 541.4231,-126 520.4231,-126 517.4231,-122 445.5769,-122 445.5769,-86 544.4231,-86 544.4231,-122"/>
      <text text-anchor="middle" x="495" y="-99.8" font-family="Times,serif" font-size="14.00" fill="#000000">
        SharedModule
      </text>
    </g>
    <!-- SharedModule&#45;&gt;AppModule -->
    <g id="edge21" class="edge">
      <title>SharedModule&#45;&gt;AppModule</title>
      <path fill="none" stroke="#000000"
            d="M495,-122.2921C495,-144.2057 495,-178 495,-178 495,-178 1845.0409,-178 1845.0409,-178"/>
      <polygon fill="#000000" stroke="#000000"
               points="1845.041,-181.5001 1855.0409,-178 1845.0409,-174.5001 1845.041,-181.5001"/>
    </g>
    <!-- JwtAuthorizationInterceptor -->
    <g id="node24" class="node">
      <title>JwtAuthorizationInterceptor</title>
      <ellipse fill="#fdb462" stroke="#000000" cx="302" cy="-104" rx="120.382" ry="18"/>
      <text text-anchor="middle" x="302" y="-99.8" font-family="Times,serif" font-size="14.00" fill="#000000">
        JwtAuthorizationInterceptor
      </text>
    </g>
    <!-- JwtAuthorizationInterceptor&#45;&gt;AppModule -->
    <g id="edge23" class="edge">
      <title>JwtAuthorizationInterceptor&#45;&gt;AppModule</title>
      <path fill="none" stroke="#000000"
            d="M302,-122.2479C302,-145.0179 302,-181 302,-181 302,-181 1845.1575,-181 1845.1575,-181"/>
      <polygon fill="#000000" stroke="#000000"
               points="1845.1575,-184.5001 1855.1575,-181 1845.1574,-177.5001 1845.1575,-184.5001"/>
    </g>
    <!-- ProductService -->
    <g id="node25" class="node">
      <title>ProductService</title>
      <ellipse fill="#fdb462" stroke="#000000" cx="94" cy="-104" rx="70.0616" ry="18"/>
      <text text-anchor="middle" x="94" y="-99.8" font-family="Times,serif" font-size="14.00" fill="#000000">
        ProductService
      </text>
    </g>
    <!-- ProductService&#45;&gt;AppModule -->
    <g id="edge24" class="edge">
      <title>ProductService&#45;&gt;AppModule</title>
      <path fill="none" stroke="#000000"
            d="M94,-122.1532C94,-145.7566 94,-184 94,-184 94,-184 1845.0861,-184 1845.0861,-184"/>
      <polygon fill="#000000" stroke="#000000"
               points="1845.0861,-187.5001 1855.0861,-184 1845.0861,-180.5001 1845.0861,-187.5001"/>
    </g>
  </g>
</svg>
