<?xml version="1.0" encoding="UTF-8" standalone="no"?>
<!DOCTYPE svg PUBLIC "-//W3C//DTD SVG 1.1//EN"
  "http://www.w3.org/Graphics/SVG/1.1/DTD/svg11.dtd">
<!-- Generated by graphviz version 2.40.1 (20161225.0304)
 -->
<!-- Title: dependencies Pages: 1 -->
<svg width="5815pt" height="417pt"
     viewBox="0.00 0.00 5815.00 417.00" xmlns="http://www.w3.org/2000/svg">
  <g id="graph0" class="graph" transform="scale(1 1) rotate(0) translate(4 413)">
    <title>dependencies</title>
    <polygon fill="#ffffff" stroke="transparent" points="-4,4 -4,-413 5811,-413 5811,4 -4,4"/>
    <text text-anchor="start" x="2882.5091" y="-42.4" font-family="sans-serif" font-weight="bold" font-size="14.00"
          fill="#000000">Legend
    </text>
    <polygon fill="#ffffb3" stroke="transparent" points="2669.5,-10 2669.5,-30 2689.5,-30 2689.5,-10 2669.5,-10"/>
    <text text-anchor="start" x="2693.129" y="-15.4" font-family="sans-serif" font-size="14.00" fill="#000000">&#160;Declarations</text>
    <polygon fill="#8dd3c7" stroke="transparent" points="2782.5,-10 2782.5,-30 2802.5,-30 2802.5,-10 2782.5,-10"/>
    <text text-anchor="start" x="2806.2251" y="-15.4" font-family="sans-serif" font-size="14.00" fill="#000000">&#160;Module</text>
    <polygon fill="#80b1d3" stroke="transparent" points="2868.5,-10 2868.5,-30 2888.5,-30 2888.5,-10 2868.5,-10"/>
    <text text-anchor="start" x="2892.2812" y="-15.4" font-family="sans-serif" font-size="14.00" fill="#000000">&#160;Bootstrap</text>
    <polygon fill="#fdb462" stroke="transparent" points="2965.5,-10 2965.5,-30 2985.5,-30 2985.5,-10 2965.5,-10"/>
    <text text-anchor="start" x="2989.1732" y="-15.4" font-family="sans-serif" font-size="14.00" fill="#000000">&#160;Providers</text>
    <polygon fill="#fb8072" stroke="transparent" points="3061.5,-10 3061.5,-30 3081.5,-30 3081.5,-10 3061.5,-10"/>
    <text text-anchor="start" x="3085.2258" y="-15.4" font-family="sans-serif" font-size="14.00" fill="#000000">&#160;Exports</text>
    <g id="clust1" class="cluster">
      <title>cluster_AdminModule</title>
      <polygon fill="none" stroke="#000000" stroke-dasharray="1,5" points="8,-70 8,-263 1076,-263 1076,-70 8,-70"/>
    </g>
    <g id="clust2" class="cluster">
      <title>cluster_AdminModule_declarations</title>
      <polygon fill="none" stroke="#000000" points="28,-143 28,-195 636,-195 636,-143 28,-143"/>
    </g>
    <g id="clust7" class="cluster">
      <title>cluster_AdminModule_imports</title>
      <polygon fill="none" stroke="#000000" points="644,-78 644,-195 928,-195 928,-78 644,-78"/>
    </g>
    <g id="clust10" class="cluster">
      <title>cluster_AdminModule_providers</title>
      <polygon fill="none" stroke="#000000" points="936,-143 936,-195 1068,-195 1068,-143 936,-143"/>
    </g>
    <g id="clust17" class="cluster">
      <title>cluster_AppModule</title>
      <polygon fill="none" stroke="#000000" stroke-dasharray="1,5"
               points="2305,-203 2305,-401 5799,-401 5799,-203 2305,-203"/>
    </g>
    <g id="clust18" class="cluster">
      <title>cluster_AppModule_declarations</title>
      <polygon fill="none" stroke="#000000" points="2887,-211 2887,-263 5791,-263 5791,-211 2887,-211"/>
    </g>
    <g id="clust37" class="cluster">
      <title>cluster_AppModule_imports</title>
      <polygon fill="none" stroke="#000000" points="2735,-211 2735,-263 2879,-263 2879,-211 2735,-211"/>
    </g>
    <g id="clust39" class="cluster">
      <title>cluster_AppModule_bootstrap</title>
      <polygon fill="none" stroke="#000000" points="3998,-341 3998,-393 4122,-393 4122,-341 3998,-341"/>
    </g>
    <g id="clust40" class="cluster">
      <title>cluster_AppModule_providers</title>
      <polygon fill="none" stroke="#000000" points="2313,-211 2313,-263 2727,-263 2727,-211 2313,-211"/>
    </g>
    <g id="clust53" class="cluster">
      <title>cluster_SharedModule</title>
      <polygon fill="none" stroke="#000000" stroke-dasharray="1,5"
               points="1084,-203 1084,-271 2297,-271 2297,-203 1084,-203"/>
    </g>
    <g id="clust54" class="cluster">
      <title>cluster_SharedModule_declarations</title>
      <polygon fill="none" stroke="#000000" points="1701,-211 1701,-263 2289,-263 2289,-211 1701,-211"/>
    </g>
    <g id="clust60" class="cluster">
      <title>cluster_SharedModule_exports</title>
      <polygon fill="none" stroke="#000000" points="1092,-211 1092,-263 1693,-263 1693,-211 1092,-211"/>
    </g>
    <!-- AccountComponent -->
    <g id="node1" class="node">
      <title>AccountComponent</title>
      <polygon fill="#ffffb3" stroke="#000000"
               points="331.259,-187 202.741,-187 202.741,-151 331.259,-151 331.259,-187"/>
      <text text-anchor="middle" x="267" y="-164.8" font-family="Times,serif" font-size="14.00" fill="#000000">
        AccountComponent
      </text>
    </g>
    <!-- AdminModule -->
    <g id="node5" class="node">
      <title>AdminModule</title>
      <polygon fill="#8dd3c7" stroke="#000000"
               points="532.4386,-255 529.4386,-259 508.4386,-259 505.4386,-255 433.5614,-255 433.5614,-219 532.4386,-219 532.4386,-255"/>
      <text text-anchor="middle" x="483" y="-232.8" font-family="Times,serif" font-size="14.00" fill="#000000">
        AdminModule
      </text>
    </g>
    <!-- AccountComponent&#45;&gt;AdminModule -->
    <g id="edge1" class="edge">
      <title>AccountComponent&#45;&gt;AdminModule</title>
      <path fill="none" stroke="#000000"
            d="M267,-187.2667C267,-205.5552 267,-231 267,-231 267,-231 423.716,-231 423.716,-231"/>
      <polygon fill="#000000" stroke="#000000"
               points="423.716,-234.5001 433.716,-231 423.7159,-227.5001 423.716,-234.5001"/>
    </g>
    <!-- AddProductComponent -->
    <g id="node2" class="node">
      <title>AddProductComponent</title>
      <polygon fill="#ffffb3" stroke="#000000"
               points="184.4874,-187 35.5126,-187 35.5126,-151 184.4874,-151 184.4874,-187"/>
      <text text-anchor="middle" x="110" y="-164.8" font-family="Times,serif" font-size="14.00" fill="#000000">
        AddProductComponent
      </text>
    </g>
    <!-- AddProductComponent&#45;&gt;AdminModule -->
    <g id="edge2" class="edge">
      <title>AddProductComponent&#45;&gt;AdminModule</title>
      <path fill="none" stroke="#000000"
            d="M110,-187.2921C110,-209.2057 110,-243 110,-243 110,-243 423.4685,-243 423.4685,-243"/>
      <polygon fill="#000000" stroke="#000000"
               points="423.4685,-246.5001 433.4685,-243 423.4684,-239.5001 423.4685,-246.5001"/>
    </g>
    <!-- CustomersComponent -->
    <g id="node3" class="node">
      <title>CustomersComponent</title>
      <polygon fill="#ffffb3" stroke="#000000"
               points="627.7148,-187 486.2852,-187 486.2852,-151 627.7148,-151 627.7148,-187"/>
      <text text-anchor="middle" x="557" y="-164.8" font-family="Times,serif" font-size="14.00" fill="#000000">
        CustomersComponent
      </text>
    </g>
    <!-- CustomersComponent&#45;&gt;AdminModule -->
    <g id="edge3" class="edge">
      <title>CustomersComponent&#45;&gt;AdminModule</title>
      <path fill="none" stroke="#000000"
            d="M509.3058,-187.2228C509.3058,-187.2228 509.3058,-208.7269 509.3058,-208.7269"/>
      <polygon fill="#000000" stroke="#000000"
               points="505.8058,-208.7269 509.3058,-218.7269 512.8058,-208.727 505.8058,-208.7269"/>
    </g>
    <!-- OrdersComponent -->
    <g id="node4" class="node">
      <title>OrdersComponent</title>
      <polygon fill="#ffffb3" stroke="#000000"
               points="468.9201,-187 349.0799,-187 349.0799,-151 468.9201,-151 468.9201,-187"/>
      <text text-anchor="middle" x="409" y="-164.8" font-family="Times,serif" font-size="14.00" fill="#000000">
        OrdersComponent
      </text>
    </g>
    <!-- OrdersComponent&#45;&gt;AdminModule -->
    <g id="edge4" class="edge">
      <title>OrdersComponent&#45;&gt;AdminModule</title>
      <path fill="none" stroke="#000000"
            d="M451.2455,-187.2228C451.2455,-187.2228 451.2455,-208.7269 451.2455,-208.7269"/>
      <polygon fill="#000000" stroke="#000000"
               points="447.7455,-208.7269 451.2455,-218.7269 454.7455,-208.727 447.7455,-208.7269"/>
    </g>
    <!-- AdminRoutingModule -->
    <g id="node6" class="node">
      <title>AdminRoutingModule</title>
      <polygon fill="#8dd3c7" stroke="#000000"
               points="795.5561,-122 792.5561,-126 771.5561,-126 768.5561,-122 652.4439,-122 652.4439,-86 795.5561,-86 795.5561,-122"/>
      <text text-anchor="middle" x="724" y="-99.8" font-family="Times,serif" font-size="14.00" fill="#000000">
        AdminRoutingModule
      </text>
    </g>
    <!-- AdminRoutingModule&#45;&gt;AdminModule -->
    <g id="edge5" class="edge">
      <title>AdminRoutingModule&#45;&gt;AdminModule</title>
      <path fill="none" stroke="#000000"
            d="M652.3857,-104C579.6211,-104 477.5512,-104 477.5512,-104 477.5512,-104 477.5512,-208.7858 477.5512,-208.7858"/>
      <polygon fill="#000000" stroke="#000000"
               points="474.0513,-208.7858 477.5512,-218.7858 481.0513,-208.7858 474.0513,-208.7858"/>
    </g>
    <!-- MaterialModule -->
    <g id="node7" class="node">
      <title>MaterialModule</title>
      <polygon fill="#8dd3c7" stroke="#000000"
               points="920.4706,-122 917.4706,-126 896.4706,-126 893.4706,-122 813.5294,-122 813.5294,-86 920.4706,-86 920.4706,-122"/>
      <text text-anchor="middle" x="867" y="-99.8" font-family="Times,serif" font-size="14.00" fill="#000000">
        MaterialModule
      </text>
    </g>
    <!-- MaterialModule&#45;&gt;AdminModule -->
    <g id="edge6" class="edge">
      <title>MaterialModule&#45;&gt;AdminModule</title>
      <path fill="none" stroke="#000000"
            d="M816.2728,-122.1491C816.2728,-156.3636 816.2728,-227 816.2728,-227 816.2728,-227 542.5344,-227 542.5344,-227"/>
      <polygon fill="#000000" stroke="#000000"
               points="542.5345,-223.5001 532.5344,-227 542.5344,-230.5001 542.5345,-223.5001"/>
    </g>
    <!-- SharedModule -->
    <g id="node8" class="node">
      <title>SharedModule</title>
      <polygon fill="#8dd3c7" stroke="#000000"
               points="920.4231,-187 917.4231,-191 896.4231,-191 893.4231,-187 821.5769,-187 821.5769,-151 920.4231,-151 920.4231,-187"/>
      <text text-anchor="middle" x="871" y="-164.8" font-family="Times,serif" font-size="14.00" fill="#000000">
        SharedModule
      </text>
    </g>
    <!-- MaterialModule&#45;&gt;SharedModule -->
    <g id="edge38" class="edge">
      <title>MaterialModule&#45;&gt;SharedModule</title>
      <path fill="none" stroke="#000000" d="M871,-122.1061C871,-122.1061 871,-140.991 871,-140.991"/>
      <polygon fill="#000000" stroke="#000000"
               points="867.5001,-140.9909 871,-150.991 874.5001,-140.991 867.5001,-140.9909"/>
    </g>
    <!-- AppModule -->
    <g id="node28" class="node">
      <title>AppModule</title>
      <polygon fill="#8dd3c7" stroke="#000000"
               points="4101.6571,-320 4098.6571,-324 4077.6571,-324 4074.6571,-320 4018.3429,-320 4018.3429,-284 4101.6571,-284 4101.6571,-320"/>
      <text text-anchor="middle" x="4060" y="-297.8" font-family="Times,serif" font-size="14.00" fill="#000000">
        AppModule
      </text>
    </g>
    <!-- MaterialModule&#45;&gt;AppModule -->
    <g id="edge28" class="edge">
      <title>MaterialModule&#45;&gt;AppModule</title>
      <path fill="none" stroke="#000000"
            d="M819.0308,-122.2455C819.0308,-173.9967 819.0308,-318 819.0308,-318 819.0308,-318 4008.1347,-318 4008.1347,-318"/>
      <polygon fill="#000000" stroke="#000000"
               points="4008.1347,-321.5001 4018.1347,-318 4008.1346,-314.5001 4008.1347,-321.5001"/>
    </g>
    <!-- SharedModule&#45;&gt;AdminModule -->
    <g id="edge7" class="edge">
      <title>SharedModule&#45;&gt;AdminModule</title>
      <path fill="none" stroke="#000000"
            d="M866.5263,-187.1061C866.5263,-206.3391 866.5263,-234 866.5263,-234 866.5263,-234 542.3542,-234 542.3542,-234"/>
      <polygon fill="#000000" stroke="#000000"
               points="542.3542,-230.5001 532.3542,-234 542.3542,-237.5001 542.3542,-230.5001"/>
    </g>
    <!-- SharedModule&#45;&gt;AppModule -->
    <g id="edge29" class="edge">
      <title>SharedModule&#45;&gt;AppModule</title>
      <path fill="none" stroke="#000000"
            d="M875.4737,-187.1958C875.4737,-226.3337 875.4737,-315 875.4737,-315 875.4737,-315 4008.2775,-315 4008.2775,-315"/>
      <polygon fill="#000000" stroke="#000000"
               points="4008.2775,-318.5001 4018.2775,-315 4008.2774,-311.5001 4008.2775,-318.5001"/>
    </g>
    <!-- ButtonComponent  -->
    <g id="node37" class="node">
      <title>ButtonComponent</title>
      <polygon fill="#fb8072" stroke="#000000"
               points="1685.4502,-255 1562.5498,-255 1562.5498,-219 1685.4502,-219 1685.4502,-255"/>
      <text text-anchor="middle" x="1624" y="-232.8" font-family="Times,serif" font-size="14.00" fill="#000000">
        ButtonComponent
      </text>
    </g>
    <!-- SharedModule&#45;&gt;ButtonComponent  -->
    <g id="edge39" class="edge">
      <title>SharedModule&#45;&gt;ButtonComponent</title>
      <path fill="none" stroke="#000000" stroke-dasharray="5,2"
            d="M902.3162,-187.1097C902.3162,-196.897 902.3162,-207 902.3162,-207 902.3162,-207 1624,-207 1624,-207 1624,-207 1624,-208.8568 1624,-208.8568"/>
      <polygon fill="#000000" stroke="#000000"
               points="1620.5001,-208.8568 1624,-218.8568 1627.5001,-208.8568 1620.5001,-208.8568"/>
    </g>
    <!-- MyCurrencyFormatterDirective  -->
    <g id="node38" class="node">
      <title>MyCurrencyFormatterDirective</title>
      <polygon fill="#fb8072" stroke="#000000"
               points="1544.3195,-255 1345.6805,-255 1345.6805,-219 1544.3195,-219 1544.3195,-255"/>
      <text text-anchor="middle" x="1445" y="-232.8" font-family="Times,serif" font-size="14.00" fill="#000000">
        MyCurrencyFormatterDirective
      </text>
    </g>
    <!-- SharedModule&#45;&gt;MyCurrencyFormatterDirective  -->
    <g id="edge40" class="edge">
      <title>SharedModule&#45;&gt;MyCurrencyFormatterDirective</title>
      <path fill="none" stroke="#000000" stroke-dasharray="5,2"
            d="M893.3687,-187.0555C893.3687,-198.439 893.3687,-211 893.3687,-211 893.3687,-211 1445,-211 1445,-211 1445,-211 1445,-211.7942 1445,-211.7942"/>
      <polygon fill="#000000" stroke="#000000"
               points="1441.5001,-208.9421 1445,-218.9421 1448.5001,-208.9422 1441.5001,-208.9421"/>
    </g>
    <!-- PlnCurrencyPipe  -->
    <g id="node39" class="node">
      <title>PlnCurrencyPipe</title>
      <polygon fill="#fb8072" stroke="#000000"
               points="1327.6481,-255 1212.3519,-255 1212.3519,-219 1327.6481,-219 1327.6481,-255"/>
      <text text-anchor="middle" x="1270" y="-232.8" font-family="Times,serif" font-size="14.00" fill="#000000">
        PlnCurrencyPipe
      </text>
    </g>
    <!-- SharedModule&#45;&gt;PlnCurrencyPipe  -->
    <g id="edge41" class="edge">
      <title>SharedModule&#45;&gt;PlnCurrencyPipe</title>
      <path fill="none" stroke="#000000" stroke-dasharray="5,2"
            d="M884.4212,-187.1804C884.4212,-200.0382 884.4212,-215 884.4212,-215 884.4212,-215 1270,-215 1270,-215 1270,-215 1270,-215.3832 1270,-215.3832"/>
      <polygon fill="#000000" stroke="#000000"
               points="1266.5003,-208.832 1270,-218.8321 1273.5003,-208.8322 1266.5003,-208.832"/>
    </g>
    <!-- PostcodePipe  -->
    <g id="node40" class="node">
      <title>PostcodePipe</title>
      <polygon fill="#fb8072" stroke="#000000"
               points="1194.4348,-255 1099.5652,-255 1099.5652,-219 1194.4348,-219 1194.4348,-255"/>
      <text text-anchor="middle" x="1147" y="-232.8" font-family="Times,serif" font-size="14.00" fill="#000000">
        PostcodePipe
      </text>
    </g>
    <!-- SharedModule&#45;&gt;PostcodePipe  -->
    <g id="edge42" class="edge">
      <title>SharedModule&#45;&gt;PostcodePipe</title>
      <path fill="none" stroke="#000000" stroke-dasharray="5,2"
            d="M911.2636,-187.3228C911.2636,-210.6602 911.2636,-248 911.2636,-248 911.2636,-248 1089.2952,-248 1089.2952,-248"/>
      <polygon fill="#000000" stroke="#000000"
               points="1089.2953,-251.5001 1099.2952,-248 1089.2952,-244.5001 1089.2953,-251.5001"/>
    </g>
    <!-- TitleService -->
    <g id="node9" class="node">
      <title>TitleService</title>
      <ellipse fill="#fdb462" stroke="#000000" cx="1002" cy="-169" rx="58.459" ry="18"/>
      <text text-anchor="middle" x="1002" y="-164.8" font-family="Times,serif" font-size="14.00" fill="#000000">
        TitleService
      </text>
    </g>
    <!-- TitleService&#45;&gt;AdminModule -->
    <g id="edge8" class="edge">
      <title>TitleService&#45;&gt;AdminModule</title>
      <path fill="none" stroke="#000000"
            d="M1002,-187.1686C1002,-208.498 1002,-241 1002,-241 1002,-241 542.2942,-241 542.2942,-241"/>
      <polygon fill="#000000" stroke="#000000"
               points="542.2942,-237.5001 532.2942,-241 542.2941,-244.5001 542.2942,-237.5001"/>
    </g>
    <!-- AppRoutingModule -->
    <g id="node29" class="node">
      <title>AppRoutingModule</title>
      <polygon fill="#8dd3c7" stroke="#000000"
               points="2871.2744,-255 2868.2744,-259 2847.2744,-259 2844.2744,-255 2742.7256,-255 2742.7256,-219 2871.2744,-219 2871.2744,-255"/>
      <text text-anchor="middle" x="2807" y="-232.8" font-family="Times,serif" font-size="14.00" fill="#000000">
        AppRoutingModule
      </text>
    </g>
    <!-- TitleService&#45;&gt;AppRoutingModule -->
    <g id="edge33" class="edge">
      <title>TitleService&#45;&gt;AppRoutingModule</title>
      <path fill="none" stroke="#000000"
            d="M1060.265,-169C1369.7508,-169 2807,-169 2807,-169 2807,-169 2807,-208.7772 2807,-208.7772"/>
      <polygon fill="#000000" stroke="#000000"
               points="2803.5001,-208.7772 2807,-218.7772 2810.5001,-208.7773 2803.5001,-208.7772"/>
    </g>
    <!-- AppComponent -->
    <g id="node10" class="node">
      <title>AppComponent</title>
      <polygon fill="#ffffb3" stroke="#000000"
               points="4112.9399,-255 4007.0601,-255 4007.0601,-219 4112.9399,-219 4112.9399,-255"/>
      <text text-anchor="middle" x="4060" y="-232.8" font-family="Times,serif" font-size="14.00" fill="#000000">
        AppComponent
      </text>
    </g>
    <!-- AppComponent&#45;&gt;AppModule -->
    <g id="edge9" class="edge">
      <title>AppComponent&#45;&gt;AppModule</title>
      <path fill="none" stroke="#000000" d="M4060,-255.1061C4060,-255.1061 4060,-273.991 4060,-273.991"/>
      <polygon fill="#000000" stroke="#000000"
               points="4056.5001,-273.9909 4060,-283.991 4063.5001,-273.991 4056.5001,-273.9909"/>
    </g>
    <!-- HomePageComponent -->
    <g id="node11" class="node">
      <title>HomePageComponent</title>
      <polygon fill="#ffffb3" stroke="#000000"
               points="3989.2562,-255 3846.7438,-255 3846.7438,-219 3989.2562,-219 3989.2562,-255"/>
      <text text-anchor="middle" x="3918" y="-232.8" font-family="Times,serif" font-size="14.00" fill="#000000">
        HomePageComponent
      </text>
    </g>
    <!-- HomePageComponent&#45;&gt;AppModule -->
    <g id="edge10" class="edge">
      <title>HomePageComponent&#45;&gt;AppModule</title>
      <path fill="none" stroke="#000000"
            d="M3918,-255.0511C3918,-269.373 3918,-287 3918,-287 3918,-287 4008.1633,-287 4008.1633,-287"/>
      <polygon fill="#000000" stroke="#000000"
               points="4008.1634,-290.5001 4018.1633,-287 4008.1633,-283.5001 4008.1634,-290.5001"/>
    </g>
    <!-- LoginComponent -->
    <g id="node12" class="node">
      <title>LoginComponent</title>
      <polygon fill="#ffffb3" stroke="#000000"
               points="3828.2758,-255 3713.7242,-255 3713.7242,-219 3828.2758,-219 3828.2758,-255"/>
      <text text-anchor="middle" x="3771" y="-232.8" font-family="Times,serif" font-size="14.00" fill="#000000">
        LoginComponent
      </text>
    </g>
    <!-- LoginComponent&#45;&gt;AppModule -->
    <g id="edge11" class="edge">
      <title>LoginComponent&#45;&gt;AppModule</title>
      <path fill="none" stroke="#000000"
            d="M3771,-255.2396C3771,-270.5706 3771,-290 3771,-290 3771,-290 4008.2856,-290 4008.2856,-290"/>
      <polygon fill="#000000" stroke="#000000"
               points="4008.2856,-293.5001 4018.2856,-290 4008.2855,-286.5001 4008.2856,-293.5001"/>
    </g>
    <!-- MenuComponent -->
    <g id="node13" class="node">
      <title>MenuComponent</title>
      <polygon fill="#ffffb3" stroke="#000000"
               points="3695.9916,-255 3582.0084,-255 3582.0084,-219 3695.9916,-219 3695.9916,-255"/>
      <text text-anchor="middle" x="3639" y="-232.8" font-family="Times,serif" font-size="14.00" fill="#000000">
        MenuComponent
      </text>
    </g>
    <!-- MenuComponent&#45;&gt;AppModule -->
    <g id="edge12" class="edge">
      <title>MenuComponent&#45;&gt;AppModule</title>
      <path fill="none" stroke="#000000"
            d="M3639,-255.027C3639,-271.3976 3639,-293 3639,-293 3639,-293 4008.0938,-293 4008.0938,-293"/>
      <polygon fill="#000000" stroke="#000000"
               points="4008.0938,-296.5001 4018.0938,-293 4008.0937,-289.5001 4008.0938,-296.5001"/>
    </g>
    <!-- MyAccountComponent -->
    <g id="node14" class="node">
      <title>MyAccountComponent</title>
      <polygon fill="#ffffb3" stroke="#000000"
               points="3564.2035,-255 3415.7965,-255 3415.7965,-219 3564.2035,-219 3564.2035,-255"/>
      <text text-anchor="middle" x="3490" y="-232.8" font-family="Times,serif" font-size="14.00" fill="#000000">
        MyAccountComponent
      </text>
    </g>
    <!-- MyAccountComponent&#45;&gt;AppModule -->
    <g id="edge13" class="edge">
      <title>MyAccountComponent&#45;&gt;AppModule</title>
      <path fill="none" stroke="#000000"
            d="M3490,-255.0225C3490,-272.3734 3490,-296 3490,-296 3490,-296 4008.0865,-296 4008.0865,-296"/>
      <polygon fill="#000000" stroke="#000000"
               points="4008.0866,-299.5001 4018.0865,-296 4008.0865,-292.5001 4008.0866,-299.5001"/>
    </g>
    <!-- MyOrdersComponent -->
    <g id="node15" class="node">
      <title>MyOrdersComponent</title>
      <polygon fill="#ffffb3" stroke="#000000"
               points="3397.3641,-255 3258.6359,-255 3258.6359,-219 3397.3641,-219 3397.3641,-255"/>
      <text text-anchor="middle" x="3328" y="-232.8" font-family="Times,serif" font-size="14.00" fill="#000000">
        MyOrdersComponent
      </text>
    </g>
    <!-- MyOrdersComponent&#45;&gt;AppModule -->
    <g id="edge14" class="edge">
      <title>MyOrdersComponent&#45;&gt;AppModule</title>
      <path fill="none" stroke="#000000"
            d="M3328,-255.302C3328,-273.2699 3328,-298 3328,-298 3328,-298 4008.2817,-298 4008.2817,-298"/>
      <polygon fill="#000000" stroke="#000000"
               points="4008.2817,-301.5001 4018.2817,-298 4008.2816,-294.5001 4008.2817,-301.5001"/>
    </g>
    <!-- MySlickCarouselComponent -->
    <g id="node16" class="node">
      <title>MySlickCarouselComponent</title>
      <polygon fill="#ffffb3" stroke="#000000"
               points="3240.8173,-255 3061.1827,-255 3061.1827,-219 3240.8173,-219 3240.8173,-255"/>
      <text text-anchor="middle" x="3151" y="-232.8" font-family="Times,serif" font-size="14.00" fill="#000000">
        MySlickCarouselComponent
      </text>
    </g>
    <!-- MySlickCarouselComponent&#45;&gt;AppModule -->
    <g id="edge15" class="edge">
      <title>MySlickCarouselComponent&#45;&gt;AppModule</title>
      <path fill="none" stroke="#000000"
            d="M3151,-255.1686C3151,-274.0898 3151,-301 3151,-301 3151,-301 4008.2806,-301 4008.2806,-301"/>
      <polygon fill="#000000" stroke="#000000"
               points="4008.2806,-304.5001 4018.2806,-301 4008.2806,-297.5001 4008.2806,-304.5001"/>
    </g>
    <!-- OrderDetailComponent -->
    <g id="node17" class="node">
      <title>OrderDetailComponent</title>
      <polygon fill="#ffffb3" stroke="#000000"
               points="3043.1825,-255 2894.8175,-255 2894.8175,-219 3043.1825,-219 3043.1825,-255"/>
      <text text-anchor="middle" x="2969" y="-232.8" font-family="Times,serif" font-size="14.00" fill="#000000">
        OrderDetailComponent
      </text>
    </g>
    <!-- OrderDetailComponent&#45;&gt;AppModule -->
    <g id="edge16" class="edge">
      <title>OrderDetailComponent&#45;&gt;AppModule</title>
      <path fill="none" stroke="#000000"
            d="M2969,-255.308C2969,-275.1455 2969,-304 2969,-304 2969,-304 4008.2325,-304 4008.2325,-304"/>
      <polygon fill="#000000" stroke="#000000"
               points="4008.2325,-307.5001 4018.2325,-304 4008.2324,-300.5001 4008.2325,-307.5001"/>
    </g>
    <!-- OrderSummaryComponent -->
    <g id="node18" class="node">
      <title>OrderSummaryComponent</title>
      <polygon fill="#ffffb3" stroke="#000000"
               points="5783.4143,-255 5614.5857,-255 5614.5857,-219 5783.4143,-219 5783.4143,-255"/>
      <text text-anchor="middle" x="5699" y="-232.8" font-family="Times,serif" font-size="14.00" fill="#000000">
        OrderSummaryComponent
      </text>
    </g>
    <!-- OrderSummaryComponent&#45;&gt;AppModule -->
    <g id="edge17" class="edge">
      <title>OrderSummaryComponent&#45;&gt;AppModule</title>
      <path fill="none" stroke="#000000"
            d="M5699,-255.1532C5699,-278.7566 5699,-317 5699,-317 5699,-317 4111.7473,-317 4111.7473,-317"/>
      <polygon fill="#000000" stroke="#000000"
               points="4111.7473,-313.5001 4101.7473,-317 4111.7472,-320.5001 4111.7473,-313.5001"/>
    </g>
    <!-- PageNotFoundComponent -->
    <g id="node19" class="node">
      <title>PageNotFoundComponent</title>
      <polygon fill="#ffffb3" stroke="#000000"
               points="5596.8243,-255 5431.1757,-255 5431.1757,-219 5596.8243,-219 5596.8243,-255"/>
      <text text-anchor="middle" x="5514" y="-232.8" font-family="Times,serif" font-size="14.00" fill="#000000">
        PageNotFoundComponent
      </text>
    </g>
    <!-- PageNotFoundComponent&#45;&gt;AppModule -->
    <g id="edge18" class="edge">
      <title>PageNotFoundComponent&#45;&gt;AppModule</title>
      <path fill="none" stroke="#000000"
            d="M5514,-255.2479C5514,-278.0179 5514,-314 5514,-314 5514,-314 4111.9473,-314 4111.9473,-314"/>
      <polygon fill="#000000" stroke="#000000"
               points="4111.9474,-310.5001 4101.9473,-314 4111.9473,-317.5001 4111.9474,-310.5001"/>
    </g>
    <!-- PaymentComponent -->
    <g id="node20" class="node">
      <title>PaymentComponent</title>
      <polygon fill="#ffffb3" stroke="#000000"
               points="5413.3258,-255 5282.6742,-255 5282.6742,-219 5413.3258,-219 5413.3258,-255"/>
      <text text-anchor="middle" x="5348" y="-232.8" font-family="Times,serif" font-size="14.00" fill="#000000">
        PaymentComponent
      </text>
    </g>
    <!-- PaymentComponent&#45;&gt;AppModule -->
    <g id="edge19" class="edge">
      <title>PaymentComponent&#45;&gt;AppModule</title>
      <path fill="none" stroke="#000000"
            d="M5348,-255.2921C5348,-277.2057 5348,-311 5348,-311 5348,-311 4111.7578,-311 4111.7578,-311"/>
      <polygon fill="#000000" stroke="#000000"
               points="4111.7579,-307.5001 4101.7578,-311 4111.7578,-314.5001 4111.7579,-307.5001"/>
    </g>
    <!-- PersonalInfoComponent -->
    <g id="node21" class="node">
      <title>PersonalInfoComponent</title>
      <polygon fill="#ffffb3" stroke="#000000"
               points="5264.3613,-255 5111.6387,-255 5111.6387,-219 5264.3613,-219 5264.3613,-255"/>
      <text text-anchor="middle" x="5188" y="-232.8" font-family="Times,serif" font-size="14.00" fill="#000000">
        PersonalInfoComponent
      </text>
    </g>
    <!-- PersonalInfoComponent&#45;&gt;AppModule -->
    <g id="edge20" class="edge">
      <title>PersonalInfoComponent&#45;&gt;AppModule</title>
      <path fill="none" stroke="#000000"
            d="M5188,-255.0267C5188,-275.7672 5188,-307 5188,-307 5188,-307 4111.8214,-307 4111.8214,-307"/>
      <polygon fill="#000000" stroke="#000000"
               points="4111.8215,-303.5001 4101.8214,-307 4111.8214,-310.5001 4111.8215,-303.5001"/>
    </g>
    <!-- ProductCardComponent -->
    <g id="node22" class="node">
      <title>ProductCardComponent</title>
      <polygon fill="#ffffb3" stroke="#000000"
               points="5094.0926,-255 4941.9074,-255 4941.9074,-219 5094.0926,-219 5094.0926,-255"/>
      <text text-anchor="middle" x="5018" y="-232.8" font-family="Times,serif" font-size="14.00" fill="#000000">
        ProductCardComponent
      </text>
    </g>
    <!-- ProductCardComponent&#45;&gt;AppModule -->
    <g id="edge21" class="edge">
      <title>ProductCardComponent&#45;&gt;AppModule</title>
      <path fill="none" stroke="#000000"
            d="M5018,-255.308C5018,-275.1455 5018,-304 5018,-304 5018,-304 4111.7801,-304 4111.7801,-304"/>
      <polygon fill="#000000" stroke="#000000"
               points="4111.7801,-300.5001 4101.7801,-304 4111.78,-307.5001 4111.7801,-300.5001"/>
    </g>
    <!-- ProductDetailsComponent -->
    <g id="node23" class="node">
      <title>ProductDetailsComponent</title>
      <polygon fill="#ffffb3" stroke="#000000"
               points="4924.0337,-255 4759.9663,-255 4759.9663,-219 4924.0337,-219 4924.0337,-255"/>
      <text text-anchor="middle" x="4842" y="-232.8" font-family="Times,serif" font-size="14.00" fill="#000000">
        ProductDetailsComponent
      </text>
    </g>
    <!-- ProductDetailsComponent&#45;&gt;AppModule -->
    <g id="edge22" class="edge">
      <title>ProductDetailsComponent&#45;&gt;AppModule</title>
      <path fill="none" stroke="#000000"
            d="M4842,-255.1686C4842,-274.0898 4842,-301 4842,-301 4842,-301 4111.7673,-301 4111.7673,-301"/>
      <polygon fill="#000000" stroke="#000000"
               points="4111.7673,-297.5001 4101.7673,-301 4111.7672,-304.5001 4111.7673,-297.5001"/>
    </g>
    <!-- ProductListComponent -->
    <g id="node24" class="node">
      <title>ProductListComponent</title>
      <polygon fill="#ffffb3" stroke="#000000"
               points="4741.1596,-255 4594.8404,-255 4594.8404,-219 4741.1596,-219 4741.1596,-255"/>
      <text text-anchor="middle" x="4668" y="-232.8" font-family="Times,serif" font-size="14.00" fill="#000000">
        ProductListComponent
      </text>
    </g>
    <!-- ProductListComponent&#45;&gt;AppModule -->
    <g id="edge23" class="edge">
      <title>ProductListComponent&#45;&gt;AppModule</title>
      <path fill="none" stroke="#000000"
            d="M4668,-255.302C4668,-273.2699 4668,-298 4668,-298 4668,-298 4111.7903,-298 4111.7903,-298"/>
      <polygon fill="#000000" stroke="#000000"
               points="4111.7903,-294.5001 4101.7903,-298 4111.7903,-301.5001 4111.7903,-294.5001"/>
    </g>
    <!-- ShoppingCartComponent -->
    <g id="node25" class="node">
      <title>ShoppingCartComponent</title>
      <polygon fill="#ffffb3" stroke="#000000"
               points="4576.608,-255 4417.392,-255 4417.392,-219 4576.608,-219 4576.608,-255"/>
      <text text-anchor="middle" x="4497" y="-232.8" font-family="Times,serif" font-size="14.00" fill="#000000">
        ShoppingCartComponent
      </text>
    </g>
    <!-- ShoppingCartComponent&#45;&gt;AppModule -->
    <g id="edge24" class="edge">
      <title>ShoppingCartComponent&#45;&gt;AppModule</title>
      <path fill="none" stroke="#000000"
            d="M4497,-255.0352C4497,-271.7344 4497,-294 4497,-294 4497,-294 4111.9014,-294 4111.9014,-294"/>
      <polygon fill="#000000" stroke="#000000"
               points="4111.9014,-290.5001 4101.9014,-294 4111.9014,-297.5001 4111.9014,-290.5001"/>
    </g>
    <!-- SignUpComponent -->
    <g id="node26" class="node">
      <title>SignUpComponent</title>
      <polygon fill="#ffffb3" stroke="#000000"
               points="4399.1123,-255 4274.8877,-255 4274.8877,-219 4399.1123,-219 4399.1123,-255"/>
      <text text-anchor="middle" x="4337" y="-232.8" font-family="Times,serif" font-size="14.00" fill="#000000">
        SignUpComponent
      </text>
    </g>
    <!-- SignUpComponent&#45;&gt;AppModule -->
    <g id="edge25" class="edge">
      <title>SignUpComponent&#45;&gt;AppModule</title>
      <path fill="none" stroke="#000000"
            d="M4337,-255.2819C4337,-270.9478 4337,-291 4337,-291 4337,-291 4111.7696,-291 4111.7696,-291"/>
      <polygon fill="#000000" stroke="#000000"
               points="4111.7696,-287.5001 4101.7696,-291 4111.7696,-294.5001 4111.7696,-287.5001"/>
    </g>
    <!-- SupportComponent -->
    <g id="node27" class="node">
      <title>SupportComponent</title>
      <polygon fill="#ffffb3" stroke="#000000"
               points="4256.6666,-255 4131.3334,-255 4131.3334,-219 4256.6666,-219 4256.6666,-255"/>
      <text text-anchor="middle" x="4194" y="-232.8" font-family="Times,serif" font-size="14.00" fill="#000000">
        SupportComponent
      </text>
    </g>
    <!-- SupportComponent&#45;&gt;AppModule -->
    <g id="edge26" class="edge">
      <title>SupportComponent&#45;&gt;AppModule</title>
      <path fill="none" stroke="#000000"
            d="M4194,-255.1243C4194,-269.7832 4194,-288 4194,-288 4194,-288 4111.6639,-288 4111.6639,-288"/>
      <polygon fill="#000000" stroke="#000000"
               points="4111.6639,-284.5001 4101.6639,-288 4111.6639,-291.5001 4111.6639,-284.5001"/>
    </g>
    <!-- AppComponent  -->
    <g id="node30" class="node">
      <title>AppComponent</title>
      <polygon fill="#80b1d3" stroke="#000000"
               points="4114.439,-385 4005.561,-385 4005.561,-349 4114.439,-349 4114.439,-385"/>
      <text text-anchor="middle" x="4060" y="-362.8" font-family="Times,serif" font-size="14.00" fill="#000000">
        AppComponent
      </text>
    </g>
    <!-- AppModule&#45;&gt;AppComponent  -->
    <g id="edge30" class="edge">
      <title>AppModule&#45;&gt;AppComponent</title>
      <path fill="none" stroke="#000000" stroke-dasharray="1,5"
            d="M4060,-320.1061C4060,-320.1061 4060,-338.991 4060,-338.991"/>
      <polygon fill="#000000" stroke="#000000"
               points="4056.5001,-338.9909 4060,-348.991 4063.5001,-338.991 4056.5001,-338.9909"/>
    </g>
    <!-- AppRoutingModule&#45;&gt;AppModule -->
    <g id="edge27" class="edge">
      <title>AppRoutingModule&#45;&gt;AppModule</title>
      <path fill="none" stroke="#000000"
            d="M2807,-255.0267C2807,-275.7672 2807,-307 2807,-307 2807,-307 4008.3104,-307 4008.3104,-307"/>
      <polygon fill="#000000" stroke="#000000"
               points="4008.3105,-310.5001 4018.3104,-307 4008.3104,-303.5001 4008.3105,-310.5001"/>
    </g>
    <!-- JwtAuthorizationInterceptor -->
    <g id="node31" class="node">
      <title>JwtAuthorizationInterceptor</title>
      <ellipse fill="#fdb462" stroke="#000000" cx="2599" cy="-237" rx="120.382" ry="18"/>
      <text text-anchor="middle" x="2599" y="-232.8" font-family="Times,serif" font-size="14.00" fill="#000000">
        JwtAuthorizationInterceptor
      </text>
    </g>
    <!-- JwtAuthorizationInterceptor&#45;&gt;AppModule -->
    <g id="edge31" class="edge">
      <title>JwtAuthorizationInterceptor&#45;&gt;AppModule</title>
      <path fill="none" stroke="#000000"
            d="M2599,-255.1686C2599,-276.498 2599,-309 2599,-309 2599,-309 4008.2405,-309 4008.2405,-309"/>
      <polygon fill="#000000" stroke="#000000"
               points="4008.2405,-312.5001 4018.2405,-309 4008.2404,-305.5001 4008.2405,-312.5001"/>
    </g>
    <!-- ProductService -->
    <g id="node32" class="node">
      <title>ProductService</title>
      <ellipse fill="#fdb462" stroke="#000000" cx="2391" cy="-237" rx="70.0616" ry="18"/>
      <text text-anchor="middle" x="2391" y="-232.8" font-family="Times,serif" font-size="14.00" fill="#000000">
        ProductService
      </text>
    </g>
    <!-- ProductService&#45;&gt;AppModule -->
    <g id="edge32" class="edge">
      <title>ProductService&#45;&gt;AppModule</title>
      <path fill="none" stroke="#000000"
            d="M2391,-255.1554C2391,-277.3519 2391,-312 2391,-312 2391,-312 4008.3272,-312 4008.3272,-312"/>
      <polygon fill="#000000" stroke="#000000"
               points="4008.3272,-315.5001 4018.3272,-312 4008.3272,-308.5001 4008.3272,-315.5001"/>
    </g>
    <!-- ButtonComponent -->
    <g id="node33" class="node">
      <title>ButtonComponent</title>
      <polygon fill="#ffffb3" stroke="#000000"
               points="2280.9511,-255 2161.0489,-255 2161.0489,-219 2280.9511,-219 2280.9511,-255"/>
      <text text-anchor="middle" x="2221" y="-232.8" font-family="Times,serif" font-size="14.00" fill="#000000">
        ButtonComponent
      </text>
    </g>
    <!-- ButtonComponent&#45;&gt;SharedModule -->
    <g id="edge34" class="edge">
      <title>ButtonComponent&#45;&gt;SharedModule</title>
      <path fill="none" stroke="#000000"
            d="M2221,-218.8196C2221,-205.9618 2221,-191 2221,-191 2221,-191 857.5788,-191 857.5788,-191 857.5788,-191 857.5788,-190.6168 857.5788,-190.6168"/>
      <polygon fill="#000000" stroke="#000000"
               points="861.0791,-197.1678 857.5788,-187.1679 854.0791,-197.168 861.0791,-197.1678"/>
    </g>
    <!-- MyCurrencyFormatterDirective -->
    <g id="node34" class="node">
      <title>MyCurrencyFormatterDirective</title>
      <polygon fill="#ffffb3" stroke="#000000"
               points="2143.3193,-255 1948.6807,-255 1948.6807,-219 2143.3193,-219 2143.3193,-255"/>
      <text text-anchor="middle" x="2046" y="-232.8" font-family="Times,serif" font-size="14.00" fill="#000000">
        MyCurrencyFormatterDirective
      </text>
    </g>
    <!-- MyCurrencyFormatterDirective&#45;&gt;SharedModule -->
    <g id="edge35" class="edge">
      <title>MyCurrencyFormatterDirective&#45;&gt;SharedModule</title>
      <path fill="none" stroke="#000000"
            d="M2046,-218.9445C2046,-207.561 2046,-195 2046,-195 2046,-195 848.6313,-195 848.6313,-195 848.6313,-195 848.6313,-194.2058 848.6313,-194.2058"/>
      <polygon fill="#000000" stroke="#000000"
               points="852.1315,-197.0578 848.6313,-187.0579 845.1315,-197.0579 852.1315,-197.0578"/>
    </g>
    <!-- PlnCurrencyPipe -->
    <g id="node35" class="node">
      <title>PlnCurrencyPipe</title>
      <polygon fill="#ffffb3" stroke="#000000"
               points="1930.6486,-255 1819.3514,-255 1819.3514,-219 1930.6486,-219 1930.6486,-255"/>
      <text text-anchor="middle" x="1875" y="-232.8" font-family="Times,serif" font-size="14.00" fill="#000000">
        PlnCurrencyPipe
      </text>
    </g>
    <!-- PlnCurrencyPipe&#45;&gt;SharedModule -->
    <g id="edge36" class="edge">
      <title>PlnCurrencyPipe&#45;&gt;SharedModule</title>
      <path fill="none" stroke="#000000"
            d="M1875,-218.8903C1875,-209.103 1875,-199 1875,-199 1875,-199 839.6838,-199 839.6838,-199 839.6838,-199 839.6838,-197.1432 839.6838,-197.1432"/>
      <polygon fill="#000000" stroke="#000000"
               points="843.1839,-197.1432 839.6838,-187.1432 836.1839,-197.1432 843.1839,-197.1432"/>
    </g>
    <!-- PostcodePipe -->
    <g id="node36" class="node">
      <title>PostcodePipe</title>
      <polygon fill="#ffffb3" stroke="#000000"
               points="1800.9358,-255 1709.0642,-255 1709.0642,-219 1800.9358,-219 1800.9358,-255"/>
      <text text-anchor="middle" x="1755" y="-232.8" font-family="Times,serif" font-size="14.00" fill="#000000">
        PostcodePipe
      </text>
    </g>
    <!-- PostcodePipe&#45;&gt;SharedModule -->
    <g id="edge37" class="edge">
      <title>PostcodePipe&#45;&gt;SharedModule</title>
      <path fill="none" stroke="#000000"
            d="M1755,-218.8056C1755,-210.7218 1755,-203 1755,-203 1755,-203 830.7364,-203 830.7364,-203 830.7364,-203 830.7364,-197.1944 830.7364,-197.1944"/>
      <polygon fill="#000000" stroke="#000000"
               points="834.2365,-197.1944 830.7364,-187.1944 827.2365,-197.1945 834.2365,-197.1944"/>
    </g>
  </g>
</svg>
